<mxfile host="app.diagrams.net" agent="Mozilla/5.0 (X11; Linux x86_64) AppleWebKit/537.36 (KHTML, like Gecko) Chrome/131.0.0.0 Safari/537.36" version="25.0.3">
  <diagram name="Page-1" id="vUU4r_Rl__pyG6UtBGQ-">
    <mxGraphModel dx="3157" dy="1257" grid="1" gridSize="10" guides="1" tooltips="1" connect="1" arrows="1" fold="1" page="1" pageScale="1" pageWidth="850" pageHeight="1100" math="0" shadow="0">
      <root>
        <mxCell id="0" />
        <mxCell id="1" parent="0" />
        <mxCell id="hcJpbvyi8QsqG0GbwhN--1" value="employees" style="shape=table;startSize=30;container=1;collapsible=0;childLayout=tableLayout;" vertex="1" parent="1">
          <mxGeometry x="-90" y="320" width="857.9999999999998" height="70" as="geometry" />
        </mxCell>
        <mxCell id="hcJpbvyi8QsqG0GbwhN--2" value="" style="shape=tableRow;horizontal=0;startSize=0;swimlaneHead=0;swimlaneBody=0;strokeColor=inherit;top=0;left=0;bottom=0;right=0;collapsible=0;dropTarget=0;fillColor=none;points=[[0,0.5],[1,0.5]];portConstraint=eastwest;" vertex="1" parent="hcJpbvyi8QsqG0GbwhN--1">
          <mxGeometry y="30" width="857.9999999999998" height="40" as="geometry" />
        </mxCell>
        <mxCell id="hcJpbvyi8QsqG0GbwhN--3" value="&lt;u&gt;emp_id&lt;/u&gt;" style="shape=partialRectangle;html=1;whiteSpace=wrap;connectable=0;strokeColor=inherit;overflow=hidden;fillColor=none;top=0;left=0;bottom=0;right=0;pointerEvents=1;" vertex="1" parent="hcJpbvyi8QsqG0GbwhN--2">
          <mxGeometry width="64" height="40" as="geometry">
            <mxRectangle width="64" height="40" as="alternateBounds" />
          </mxGeometry>
        </mxCell>
        <mxCell id="hcJpbvyi8QsqG0GbwhN--4" value="Fname" style="shape=partialRectangle;html=1;whiteSpace=wrap;connectable=0;strokeColor=inherit;overflow=hidden;fillColor=none;top=0;left=0;bottom=0;right=0;pointerEvents=1;" vertex="1" parent="hcJpbvyi8QsqG0GbwhN--2">
          <mxGeometry x="64" width="65" height="40" as="geometry">
            <mxRectangle width="65" height="40" as="alternateBounds" />
          </mxGeometry>
        </mxCell>
        <mxCell id="hcJpbvyi8QsqG0GbwhN--5" value="Lname" style="shape=partialRectangle;html=1;whiteSpace=wrap;connectable=0;strokeColor=inherit;overflow=hidden;fillColor=none;top=0;left=0;bottom=0;right=0;pointerEvents=1;" vertex="1" parent="hcJpbvyi8QsqG0GbwhN--2">
          <mxGeometry x="129" width="64" height="40" as="geometry">
            <mxRectangle width="64" height="40" as="alternateBounds" />
          </mxGeometry>
        </mxCell>
        <mxCell id="hcJpbvyi8QsqG0GbwhN--6" value="email" style="shape=partialRectangle;html=1;whiteSpace=wrap;connectable=0;strokeColor=inherit;overflow=hidden;fillColor=none;top=0;left=0;bottom=0;right=0;pointerEvents=1;" vertex="1" parent="hcJpbvyi8QsqG0GbwhN--2">
          <mxGeometry x="193" width="65" height="40" as="geometry">
            <mxRectangle width="65" height="40" as="alternateBounds" />
          </mxGeometry>
        </mxCell>
        <mxCell id="hcJpbvyi8QsqG0GbwhN--7" value="salary" style="shape=partialRectangle;html=1;whiteSpace=wrap;connectable=0;strokeColor=inherit;overflow=hidden;fillColor=none;top=0;left=0;bottom=0;right=0;pointerEvents=1;" vertex="1" parent="hcJpbvyi8QsqG0GbwhN--2">
          <mxGeometry x="258" width="64" height="40" as="geometry">
            <mxRectangle width="64" height="40" as="alternateBounds" />
          </mxGeometry>
        </mxCell>
        <mxCell id="hcJpbvyi8QsqG0GbwhN--8" value="dateOfBirth" style="shape=partialRectangle;html=1;whiteSpace=wrap;connectable=0;strokeColor=inherit;overflow=hidden;fillColor=none;top=0;left=0;bottom=0;right=0;pointerEvents=1;" vertex="1" parent="hcJpbvyi8QsqG0GbwhN--2">
          <mxGeometry x="322" width="86" height="40" as="geometry">
            <mxRectangle width="86" height="40" as="alternateBounds" />
          </mxGeometry>
        </mxCell>
        <mxCell id="hcJpbvyi8QsqG0GbwhN--9" value="bonus" style="shape=partialRectangle;html=1;whiteSpace=wrap;connectable=0;strokeColor=inherit;overflow=hidden;fillColor=none;top=0;left=0;bottom=0;right=0;pointerEvents=1;" vertex="1" parent="hcJpbvyi8QsqG0GbwhN--2">
          <mxGeometry x="408" width="52" height="40" as="geometry">
            <mxRectangle width="52" height="40" as="alternateBounds" />
          </mxGeometry>
        </mxCell>
        <mxCell id="hcJpbvyi8QsqG0GbwhN--10" value="address" style="shape=partialRectangle;html=1;whiteSpace=wrap;connectable=0;strokeColor=inherit;overflow=hidden;fillColor=none;top=0;left=0;bottom=0;right=0;pointerEvents=1;" vertex="1" parent="hcJpbvyi8QsqG0GbwhN--2">
          <mxGeometry x="460" width="56" height="40" as="geometry">
            <mxRectangle width="56" height="40" as="alternateBounds" />
          </mxGeometry>
        </mxCell>
        <mxCell id="hcJpbvyi8QsqG0GbwhN--11" value="phone_number" style="shape=partialRectangle;html=1;whiteSpace=wrap;connectable=0;strokeColor=inherit;overflow=hidden;fillColor=none;top=0;left=0;bottom=0;right=0;pointerEvents=1;" vertex="1" parent="hcJpbvyi8QsqG0GbwhN--2">
          <mxGeometry x="516" width="114" height="40" as="geometry">
            <mxRectangle width="114" height="40" as="alternateBounds" />
          </mxGeometry>
        </mxCell>
        <mxCell id="hcJpbvyi8QsqG0GbwhN--27" value="supervisor_id" style="shape=partialRectangle;html=1;whiteSpace=wrap;connectable=0;strokeColor=inherit;overflow=hidden;fillColor=none;top=0;left=0;bottom=0;right=0;pointerEvents=1;" vertex="1" parent="hcJpbvyi8QsqG0GbwhN--2">
          <mxGeometry x="630" width="114" height="40" as="geometry">
            <mxRectangle width="114" height="40" as="alternateBounds" />
          </mxGeometry>
        </mxCell>
        <mxCell id="hcJpbvyi8QsqG0GbwhN--23" value="floor_id" style="shape=partialRectangle;html=1;whiteSpace=wrap;connectable=0;strokeColor=inherit;overflow=hidden;fillColor=none;top=0;left=0;bottom=0;right=0;pointerEvents=1;" vertex="1" parent="hcJpbvyi8QsqG0GbwhN--2">
          <mxGeometry x="744" width="114" height="40" as="geometry">
            <mxRectangle width="114" height="40" as="alternateBounds" />
          </mxGeometry>
        </mxCell>
        <mxCell id="hcJpbvyi8QsqG0GbwhN--29" value="" style="endArrow=classic;html=1;rounded=0;entryX=0.054;entryY=0.96;entryDx=0;entryDy=0;entryPerimeter=0;exitX=0.787;exitY=1.042;exitDx=0;exitDy=0;exitPerimeter=0;" edge="1" parent="hcJpbvyi8QsqG0GbwhN--1" source="hcJpbvyi8QsqG0GbwhN--2" target="hcJpbvyi8QsqG0GbwhN--2">
          <mxGeometry width="50" height="50" relative="1" as="geometry">
            <mxPoint x="670" y="90" as="sourcePoint" />
            <mxPoint x="49.763999999999896" y="79.12" as="targetPoint" />
            <Array as="points">
              <mxPoint x="675" y="90" />
              <mxPoint x="46" y="90" />
            </Array>
          </mxGeometry>
        </mxCell>
        <mxCell id="hcJpbvyi8QsqG0GbwhN--12" value="floors" style="shape=table;startSize=30;container=1;collapsible=0;childLayout=tableLayout;" vertex="1" parent="1">
          <mxGeometry x="820" y="320" width="482" height="70" as="geometry" />
        </mxCell>
        <mxCell id="hcJpbvyi8QsqG0GbwhN--13" value="" style="shape=tableRow;horizontal=0;startSize=0;swimlaneHead=0;swimlaneBody=0;strokeColor=inherit;top=0;left=0;bottom=0;right=0;collapsible=0;dropTarget=0;fillColor=none;points=[[0,0.5],[1,0.5]];portConstraint=eastwest;fontStyle=4" vertex="1" parent="hcJpbvyi8QsqG0GbwhN--12">
          <mxGeometry y="30" width="482" height="40" as="geometry" />
        </mxCell>
        <mxCell id="hcJpbvyi8QsqG0GbwhN--14" value="&lt;u&gt;floor_number&lt;/u&gt;" style="shape=partialRectangle;html=1;whiteSpace=wrap;connectable=0;strokeColor=inherit;overflow=hidden;fillColor=none;top=0;left=0;bottom=0;right=0;pointerEvents=1;" vertex="1" parent="hcJpbvyi8QsqG0GbwhN--13">
          <mxGeometry width="104" height="40" as="geometry">
            <mxRectangle width="104" height="40" as="alternateBounds" />
          </mxGeometry>
        </mxCell>
        <mxCell id="hcJpbvyi8QsqG0GbwhN--15" value="number_of_blocks" style="shape=partialRectangle;html=1;whiteSpace=wrap;connectable=0;strokeColor=inherit;overflow=hidden;fillColor=none;top=0;left=0;bottom=0;right=0;pointerEvents=1;" vertex="1" parent="hcJpbvyi8QsqG0GbwhN--13">
          <mxGeometry x="104" width="126" height="40" as="geometry">
            <mxRectangle width="126" height="40" as="alternateBounds" />
          </mxGeometry>
        </mxCell>
        <mxCell id="hcJpbvyi8QsqG0GbwhN--17" value="&lt;span&gt;manager_id&lt;/span&gt;" style="shape=partialRectangle;html=1;whiteSpace=wrap;connectable=0;strokeColor=inherit;overflow=hidden;fillColor=none;top=0;left=0;bottom=0;right=0;pointerEvents=1;fontStyle=0" vertex="1" parent="hcJpbvyi8QsqG0GbwhN--13">
          <mxGeometry x="230" width="126" height="40" as="geometry">
            <mxRectangle width="126" height="40" as="alternateBounds" />
          </mxGeometry>
        </mxCell>
        <mxCell id="hcJpbvyi8QsqG0GbwhN--20" value="hiring_date" style="shape=partialRectangle;html=1;whiteSpace=wrap;connectable=0;strokeColor=inherit;overflow=hidden;fillColor=none;top=0;left=0;bottom=0;right=0;pointerEvents=1;fontStyle=0" vertex="1" parent="hcJpbvyi8QsqG0GbwhN--13">
          <mxGeometry x="356" width="126" height="40" as="geometry">
            <mxRectangle width="126" height="40" as="alternateBounds" />
          </mxGeometry>
        </mxCell>
        <mxCell id="hcJpbvyi8QsqG0GbwhN--18" value="" style="endArrow=none;dashed=1;html=1;dashPattern=1 3;strokeWidth=2;rounded=0;" edge="1" parent="1">
          <mxGeometry width="50" height="50" relative="1" as="geometry">
            <mxPoint x="1070" y="380" as="sourcePoint" />
            <mxPoint x="1148" y="380" as="targetPoint" />
          </mxGeometry>
        </mxCell>
        <mxCell id="hcJpbvyi8QsqG0GbwhN--22" value="" style="endArrow=classic;html=1;rounded=0;exitX=0.574;exitY=0.997;exitDx=0;exitDy=0;exitPerimeter=0;entryX=0.033;entryY=0.96;entryDx=0;entryDy=0;entryPerimeter=0;" edge="1" parent="1" source="hcJpbvyi8QsqG0GbwhN--13" target="hcJpbvyi8QsqG0GbwhN--2">
          <mxGeometry width="50" height="50" relative="1" as="geometry">
            <mxPoint x="830" y="410" as="sourcePoint" />
            <mxPoint x="420" y="280" as="targetPoint" />
            <Array as="points">
              <mxPoint x="1097" y="440" />
              <mxPoint x="-62" y="440" />
            </Array>
          </mxGeometry>
        </mxCell>
        <mxCell id="hcJpbvyi8QsqG0GbwhN--24" value="" style="endArrow=none;dashed=1;html=1;dashPattern=1 3;strokeWidth=2;rounded=0;" edge="1" parent="1">
          <mxGeometry width="50" height="50" relative="1" as="geometry">
            <mxPoint x="680" y="380" as="sourcePoint" />
            <mxPoint x="758" y="380" as="targetPoint" />
          </mxGeometry>
        </mxCell>
        <mxCell id="hcJpbvyi8QsqG0GbwhN--26" value="" style="endArrow=classic;html=1;rounded=0;exitX=0.928;exitY=0.979;exitDx=0;exitDy=0;exitPerimeter=0;" edge="1" parent="1" source="hcJpbvyi8QsqG0GbwhN--2">
          <mxGeometry width="50" height="50" relative="1" as="geometry">
            <mxPoint x="900" y="370" as="sourcePoint" />
            <mxPoint x="870" y="390" as="targetPoint" />
            <Array as="points">
              <mxPoint x="707" y="410" />
              <mxPoint x="870" y="410" />
            </Array>
          </mxGeometry>
        </mxCell>
        <mxCell id="hcJpbvyi8QsqG0GbwhN--28" value="" style="endArrow=none;dashed=1;html=1;dashPattern=1 3;strokeWidth=2;rounded=0;" edge="1" parent="1">
          <mxGeometry width="50" height="50" relative="1" as="geometry">
            <mxPoint x="560" y="380" as="sourcePoint" />
            <mxPoint x="638" y="380" as="targetPoint" />
          </mxGeometry>
        </mxCell>
        <mxCell id="hcJpbvyi8QsqG0GbwhN--31" value="shelfs" style="shape=table;startSize=30;container=1;collapsible=0;childLayout=tableLayout;" vertex="1" parent="1">
          <mxGeometry x="1490" y="310" width="120" height="70" as="geometry" />
        </mxCell>
        <mxCell id="hcJpbvyi8QsqG0GbwhN--32" value="" style="shape=tableRow;horizontal=0;startSize=0;swimlaneHead=0;swimlaneBody=0;strokeColor=inherit;top=0;left=0;bottom=0;right=0;collapsible=0;dropTarget=0;fillColor=none;points=[[0,0.5],[1,0.5]];portConstraint=eastwest;" vertex="1" parent="hcJpbvyi8QsqG0GbwhN--31">
          <mxGeometry y="30" width="120" height="40" as="geometry" />
        </mxCell>
        <mxCell id="hcJpbvyi8QsqG0GbwhN--33" value="&lt;u&gt;code&lt;/u&gt;" style="shape=partialRectangle;html=1;whiteSpace=wrap;connectable=0;strokeColor=inherit;overflow=hidden;fillColor=none;top=0;left=0;bottom=0;right=0;pointerEvents=1;" vertex="1" parent="hcJpbvyi8QsqG0GbwhN--32">
          <mxGeometry width="60" height="40" as="geometry">
            <mxRectangle width="60" height="40" as="alternateBounds" />
          </mxGeometry>
        </mxCell>
        <mxCell id="hcJpbvyi8QsqG0GbwhN--34" value="floor_id" style="shape=partialRectangle;html=1;whiteSpace=wrap;connectable=0;strokeColor=inherit;overflow=hidden;fillColor=none;top=0;left=0;bottom=0;right=0;pointerEvents=1;" vertex="1" parent="hcJpbvyi8QsqG0GbwhN--32">
          <mxGeometry x="60" width="60" height="40" as="geometry">
            <mxRectangle width="60" height="40" as="alternateBounds" />
          </mxGeometry>
        </mxCell>
        <mxCell id="hcJpbvyi8QsqG0GbwhN--36" value="" style="endArrow=none;dashed=1;html=1;dashPattern=1 3;strokeWidth=2;rounded=0;" edge="1" parent="1">
          <mxGeometry width="50" height="50" relative="1" as="geometry">
            <mxPoint x="1560" y="370" as="sourcePoint" />
            <mxPoint x="1604" y="370" as="targetPoint" />
          </mxGeometry>
        </mxCell>
        <mxCell id="hcJpbvyi8QsqG0GbwhN--37" value="" style="endArrow=classic;html=1;rounded=0;exitX=1;exitY=0.5;exitDx=0;exitDy=0;entryX=0;entryY=0.5;entryDx=0;entryDy=0;" edge="1" parent="1" source="hcJpbvyi8QsqG0GbwhN--32" target="hcJpbvyi8QsqG0GbwhN--13">
          <mxGeometry width="50" height="50" relative="1" as="geometry">
            <mxPoint x="1240" y="490" as="sourcePoint" />
            <mxPoint x="1290" y="440" as="targetPoint" />
            <Array as="points">
              <mxPoint x="1640" y="360" />
              <mxPoint x="1640" y="280" />
              <mxPoint x="800" y="280" />
              <mxPoint x="800" y="370" />
            </Array>
          </mxGeometry>
        </mxCell>
        <mxCell id="hcJpbvyi8QsqG0GbwhN--38" value="books" style="shape=table;startSize=30;container=1;collapsible=0;childLayout=tableLayout;" vertex="1" parent="1">
          <mxGeometry x="1302" y="560" width="336" height="70" as="geometry" />
        </mxCell>
        <mxCell id="hcJpbvyi8QsqG0GbwhN--39" value="" style="shape=tableRow;horizontal=0;startSize=0;swimlaneHead=0;swimlaneBody=0;strokeColor=inherit;top=0;left=0;bottom=0;right=0;collapsible=0;dropTarget=0;fillColor=none;points=[[0,0.5],[1,0.5]];portConstraint=eastwest;" vertex="1" parent="hcJpbvyi8QsqG0GbwhN--38">
          <mxGeometry y="30" width="336" height="40" as="geometry" />
        </mxCell>
        <mxCell id="hcJpbvyi8QsqG0GbwhN--40" value="&lt;u&gt;id&lt;/u&gt;" style="shape=partialRectangle;html=1;whiteSpace=wrap;connectable=0;strokeColor=inherit;overflow=hidden;fillColor=none;top=0;left=0;bottom=0;right=0;pointerEvents=1;" vertex="1" parent="hcJpbvyi8QsqG0GbwhN--39">
          <mxGeometry width="60" height="40" as="geometry">
            <mxRectangle width="60" height="40" as="alternateBounds" />
          </mxGeometry>
        </mxCell>
        <mxCell id="hcJpbvyi8QsqG0GbwhN--41" value="title" style="shape=partialRectangle;html=1;whiteSpace=wrap;connectable=0;strokeColor=inherit;overflow=hidden;fillColor=none;top=0;left=0;bottom=0;right=0;pointerEvents=1;" vertex="1" parent="hcJpbvyi8QsqG0GbwhN--39">
          <mxGeometry x="60" width="60" height="40" as="geometry">
            <mxRectangle width="60" height="40" as="alternateBounds" />
          </mxGeometry>
        </mxCell>
        <mxCell id="hcJpbvyi8QsqG0GbwhN--42" value="cat_id" style="shape=partialRectangle;html=1;whiteSpace=wrap;connectable=0;strokeColor=inherit;overflow=hidden;fillColor=none;top=0;left=0;bottom=0;right=0;pointerEvents=1;" vertex="1" parent="hcJpbvyi8QsqG0GbwhN--39">
          <mxGeometry x="120" width="60" height="40" as="geometry">
            <mxRectangle width="60" height="40" as="alternateBounds" />
          </mxGeometry>
        </mxCell>
        <mxCell id="hcJpbvyi8QsqG0GbwhN--51" value="&lt;span style=&quot;color: rgb(0, 0, 0); font-family: Helvetica; font-size: 12px; font-style: normal; font-variant-ligatures: normal; font-variant-caps: normal; font-weight: 400; letter-spacing: normal; orphans: 2; text-align: center; text-indent: 0px; text-transform: none; widows: 2; word-spacing: 0px; -webkit-text-stroke-width: 0px; white-space: normal; background-color: rgb(251, 251, 251); text-decoration-thickness: initial; text-decoration-style: initial; text-decoration-color: initial; display: inline !important; float: none;&quot;&gt;shelf_id&lt;/span&gt;" style="shape=partialRectangle;html=1;whiteSpace=wrap;connectable=0;strokeColor=inherit;overflow=hidden;fillColor=none;top=0;left=0;bottom=0;right=0;pointerEvents=1;" vertex="1" parent="hcJpbvyi8QsqG0GbwhN--39">
          <mxGeometry x="180" width="78" height="40" as="geometry">
            <mxRectangle width="78" height="40" as="alternateBounds" />
          </mxGeometry>
        </mxCell>
        <mxCell id="hcJpbvyi8QsqG0GbwhN--79" value="publisher_id" style="shape=partialRectangle;html=1;whiteSpace=wrap;connectable=0;strokeColor=inherit;overflow=hidden;fillColor=none;top=0;left=0;bottom=0;right=0;pointerEvents=1;" vertex="1" parent="hcJpbvyi8QsqG0GbwhN--39">
          <mxGeometry x="258" width="78" height="40" as="geometry">
            <mxRectangle width="78" height="40" as="alternateBounds" />
          </mxGeometry>
        </mxCell>
        <mxCell id="hcJpbvyi8QsqG0GbwhN--43" value="" style="endArrow=none;dashed=1;html=1;dashPattern=1 3;strokeWidth=2;rounded=0;" edge="1" parent="1">
          <mxGeometry width="50" height="50" relative="1" as="geometry">
            <mxPoint x="1430" y="620" as="sourcePoint" />
            <mxPoint x="1478" y="620" as="targetPoint" />
          </mxGeometry>
        </mxCell>
        <mxCell id="hcJpbvyi8QsqG0GbwhN--44" value="" style="endArrow=classic;html=1;rounded=0;edgeStyle=orthogonalEdgeStyle;exitX=0.655;exitY=1.055;exitDx=0;exitDy=0;entryX=0.768;entryY=0.985;entryDx=0;entryDy=0;entryPerimeter=0;exitPerimeter=0;" edge="1" parent="1" source="hcJpbvyi8QsqG0GbwhN--39" target="hcJpbvyi8QsqG0GbwhN--32">
          <mxGeometry width="50" height="50" relative="1" as="geometry">
            <mxPoint x="1240" y="490" as="sourcePoint" />
            <mxPoint x="1290" y="440" as="targetPoint" />
            <Array as="points">
              <mxPoint x="1522" y="660" />
              <mxPoint x="1680" y="660" />
              <mxPoint x="1680" y="460" />
              <mxPoint x="1582" y="460" />
            </Array>
          </mxGeometry>
        </mxCell>
        <mxCell id="hcJpbvyi8QsqG0GbwhN--45" value="categories" style="shape=table;startSize=30;container=1;collapsible=0;childLayout=tableLayout;" vertex="1" parent="1">
          <mxGeometry x="1500" y="690" width="120" height="70" as="geometry" />
        </mxCell>
        <mxCell id="hcJpbvyi8QsqG0GbwhN--46" value="" style="shape=tableRow;horizontal=0;startSize=0;swimlaneHead=0;swimlaneBody=0;strokeColor=inherit;top=0;left=0;bottom=0;right=0;collapsible=0;dropTarget=0;fillColor=none;points=[[0,0.5],[1,0.5]];portConstraint=eastwest;" vertex="1" parent="hcJpbvyi8QsqG0GbwhN--45">
          <mxGeometry y="30" width="120" height="40" as="geometry" />
        </mxCell>
        <mxCell id="hcJpbvyi8QsqG0GbwhN--47" value="&lt;u&gt;id&lt;/u&gt;" style="shape=partialRectangle;html=1;whiteSpace=wrap;connectable=0;strokeColor=inherit;overflow=hidden;fillColor=none;top=0;left=0;bottom=0;right=0;pointerEvents=1;" vertex="1" parent="hcJpbvyi8QsqG0GbwhN--46">
          <mxGeometry width="60" height="40" as="geometry">
            <mxRectangle width="60" height="40" as="alternateBounds" />
          </mxGeometry>
        </mxCell>
        <mxCell id="hcJpbvyi8QsqG0GbwhN--48" value="cat_name" style="shape=partialRectangle;html=1;whiteSpace=wrap;connectable=0;strokeColor=inherit;overflow=hidden;fillColor=none;top=0;left=0;bottom=0;right=0;pointerEvents=1;" vertex="1" parent="hcJpbvyi8QsqG0GbwhN--46">
          <mxGeometry x="60" width="60" height="40" as="geometry">
            <mxRectangle width="60" height="40" as="alternateBounds" />
          </mxGeometry>
        </mxCell>
        <mxCell id="hcJpbvyi8QsqG0GbwhN--57" value="" style="endArrow=none;dashed=1;html=1;dashPattern=1 3;strokeWidth=2;rounded=0;" edge="1" parent="1">
          <mxGeometry width="50" height="50" relative="1" as="geometry">
            <mxPoint x="1494" y="620" as="sourcePoint" />
            <mxPoint x="1542" y="620" as="targetPoint" />
          </mxGeometry>
        </mxCell>
        <mxCell id="hcJpbvyi8QsqG0GbwhN--58" value="" style="endArrow=classic;html=1;rounded=0;exitX=0.119;exitY=1.035;exitDx=0;exitDy=0;exitPerimeter=0;entryX=0;entryY=0.5;entryDx=0;entryDy=0;edgeStyle=orthogonalEdgeStyle;" edge="1" parent="1" source="hcJpbvyi8QsqG0GbwhN--39" target="hcJpbvyi8QsqG0GbwhN--46">
          <mxGeometry width="50" height="50" relative="1" as="geometry">
            <mxPoint x="1427.7299999999996" y="620.0000000000001" as="sourcePoint" />
            <mxPoint x="1479.96" y="728.6" as="targetPoint" />
            <Array as="points">
              <mxPoint x="1333" y="650" />
              <mxPoint x="1450" y="650" />
              <mxPoint x="1450" y="739" />
              <mxPoint x="1497" y="739" />
              <mxPoint x="1497" y="740" />
            </Array>
          </mxGeometry>
        </mxCell>
        <mxCell id="hcJpbvyi8QsqG0GbwhN--60" value="authers" style="shape=table;startSize=30;container=1;collapsible=0;childLayout=tableLayout;" vertex="1" parent="1">
          <mxGeometry x="1170" y="660" width="120" height="70" as="geometry" />
        </mxCell>
        <mxCell id="hcJpbvyi8QsqG0GbwhN--61" value="" style="shape=tableRow;horizontal=0;startSize=0;swimlaneHead=0;swimlaneBody=0;strokeColor=inherit;top=0;left=0;bottom=0;right=0;collapsible=0;dropTarget=0;fillColor=none;points=[[0,0.5],[1,0.5]];portConstraint=eastwest;" vertex="1" parent="hcJpbvyi8QsqG0GbwhN--60">
          <mxGeometry y="30" width="120" height="40" as="geometry" />
        </mxCell>
        <mxCell id="hcJpbvyi8QsqG0GbwhN--62" value="&lt;u&gt;id&lt;/u&gt;" style="shape=partialRectangle;html=1;whiteSpace=wrap;connectable=0;strokeColor=inherit;overflow=hidden;fillColor=none;top=0;left=0;bottom=0;right=0;pointerEvents=1;" vertex="1" parent="hcJpbvyi8QsqG0GbwhN--61">
          <mxGeometry width="60" height="40" as="geometry">
            <mxRectangle width="60" height="40" as="alternateBounds" />
          </mxGeometry>
        </mxCell>
        <mxCell id="hcJpbvyi8QsqG0GbwhN--63" value="name" style="shape=partialRectangle;html=1;whiteSpace=wrap;connectable=0;strokeColor=inherit;overflow=hidden;fillColor=none;top=0;left=0;bottom=0;right=0;pointerEvents=1;" vertex="1" parent="hcJpbvyi8QsqG0GbwhN--61">
          <mxGeometry x="60" width="60" height="40" as="geometry">
            <mxRectangle width="60" height="40" as="alternateBounds" />
          </mxGeometry>
        </mxCell>
        <mxCell id="hcJpbvyi8QsqG0GbwhN--65" value="auther_books" style="shape=table;startSize=30;container=1;collapsible=0;childLayout=tableLayout;" vertex="1" parent="1">
          <mxGeometry x="1100" y="569" width="140" height="70" as="geometry" />
        </mxCell>
        <mxCell id="hcJpbvyi8QsqG0GbwhN--66" value="" style="shape=tableRow;horizontal=0;startSize=0;swimlaneHead=0;swimlaneBody=0;strokeColor=inherit;top=0;left=0;bottom=0;right=0;collapsible=0;dropTarget=0;fillColor=none;points=[[0,0.5],[1,0.5]];portConstraint=eastwest;" vertex="1" parent="hcJpbvyi8QsqG0GbwhN--65">
          <mxGeometry y="30" width="140" height="40" as="geometry" />
        </mxCell>
        <mxCell id="hcJpbvyi8QsqG0GbwhN--67" value="auther_id" style="shape=partialRectangle;html=1;whiteSpace=wrap;connectable=0;strokeColor=inherit;overflow=hidden;fillColor=none;top=0;left=0;bottom=0;right=0;pointerEvents=1;" vertex="1" parent="hcJpbvyi8QsqG0GbwhN--66">
          <mxGeometry width="70" height="40" as="geometry">
            <mxRectangle width="70" height="40" as="alternateBounds" />
          </mxGeometry>
        </mxCell>
        <mxCell id="hcJpbvyi8QsqG0GbwhN--68" value="book_id" style="shape=partialRectangle;html=1;whiteSpace=wrap;connectable=0;strokeColor=inherit;overflow=hidden;fillColor=none;top=0;left=0;bottom=0;right=0;pointerEvents=1;" vertex="1" parent="hcJpbvyi8QsqG0GbwhN--66">
          <mxGeometry x="70" width="70" height="40" as="geometry">
            <mxRectangle width="70" height="40" as="alternateBounds" />
          </mxGeometry>
        </mxCell>
        <mxCell id="hcJpbvyi8QsqG0GbwhN--69" value="" style="endArrow=classic;html=1;rounded=0;edgeStyle=orthogonalEdgeStyle;entryX=0;entryY=0.75;entryDx=0;entryDy=0;entryPerimeter=0;" edge="1" parent="1" target="hcJpbvyi8QsqG0GbwhN--39">
          <mxGeometry width="50" height="50" relative="1" as="geometry">
            <mxPoint x="1240" y="620" as="sourcePoint" />
            <mxPoint x="1290" y="520" as="targetPoint" />
            <Array as="points">
              <mxPoint x="1260" y="620" />
              <mxPoint x="1260" y="620" />
            </Array>
          </mxGeometry>
        </mxCell>
        <mxCell id="hcJpbvyi8QsqG0GbwhN--70" value="" style="endArrow=classic;html=1;rounded=0;edgeStyle=orthogonalEdgeStyle;entryX=0;entryY=0.5;entryDx=0;entryDy=0;exitX=0.221;exitY=1.055;exitDx=0;exitDy=0;exitPerimeter=0;flowAnimation=0;" edge="1" parent="1" source="hcJpbvyi8QsqG0GbwhN--66" target="hcJpbvyi8QsqG0GbwhN--61">
          <mxGeometry width="50" height="50" relative="1" as="geometry">
            <mxPoint x="1060" y="680" as="sourcePoint" />
            <mxPoint x="1169.96" y="700.0000000000001" as="targetPoint" />
            <Array as="points">
              <mxPoint x="1131" y="710" />
            </Array>
          </mxGeometry>
        </mxCell>
        <mxCell id="hcJpbvyi8QsqG0GbwhN--73" value="" style="endArrow=none;dashed=1;html=1;dashPattern=1 3;strokeWidth=2;rounded=0;" edge="1" parent="1">
          <mxGeometry width="50" height="50" relative="1" as="geometry">
            <mxPoint x="1180" y="629" as="sourcePoint" />
            <mxPoint x="1228" y="629" as="targetPoint" />
          </mxGeometry>
        </mxCell>
        <mxCell id="hcJpbvyi8QsqG0GbwhN--74" value="" style="endArrow=none;dashed=1;html=1;dashPattern=1 3;strokeWidth=2;rounded=0;" edge="1" parent="1">
          <mxGeometry width="50" height="50" relative="1" as="geometry">
            <mxPoint x="1111" y="630.2" as="sourcePoint" />
            <mxPoint x="1159" y="630.2" as="targetPoint" />
          </mxGeometry>
        </mxCell>
        <mxCell id="hcJpbvyi8QsqG0GbwhN--75" value="publishers" style="shape=table;startSize=30;container=1;collapsible=0;childLayout=tableLayout;" vertex="1" parent="1">
          <mxGeometry x="1350" y="440" width="120" height="70" as="geometry" />
        </mxCell>
        <mxCell id="hcJpbvyi8QsqG0GbwhN--76" value="" style="shape=tableRow;horizontal=0;startSize=0;swimlaneHead=0;swimlaneBody=0;strokeColor=inherit;top=0;left=0;bottom=0;right=0;collapsible=0;dropTarget=0;fillColor=none;points=[[0,0.5],[1,0.5]];portConstraint=eastwest;" vertex="1" parent="hcJpbvyi8QsqG0GbwhN--75">
          <mxGeometry y="30" width="120" height="40" as="geometry" />
        </mxCell>
        <mxCell id="hcJpbvyi8QsqG0GbwhN--77" value="&lt;u&gt;id&lt;/u&gt;" style="shape=partialRectangle;html=1;whiteSpace=wrap;connectable=0;strokeColor=inherit;overflow=hidden;fillColor=none;top=0;left=0;bottom=0;right=0;pointerEvents=1;" vertex="1" parent="hcJpbvyi8QsqG0GbwhN--76">
          <mxGeometry width="60" height="40" as="geometry">
            <mxRectangle width="60" height="40" as="alternateBounds" />
          </mxGeometry>
        </mxCell>
        <mxCell id="hcJpbvyi8QsqG0GbwhN--78" value="name" style="shape=partialRectangle;html=1;whiteSpace=wrap;connectable=0;strokeColor=inherit;overflow=hidden;fillColor=none;top=0;left=0;bottom=0;right=0;pointerEvents=1;" vertex="1" parent="hcJpbvyi8QsqG0GbwhN--76">
          <mxGeometry x="60" width="60" height="40" as="geometry">
            <mxRectangle width="60" height="40" as="alternateBounds" />
          </mxGeometry>
        </mxCell>
        <mxCell id="hcJpbvyi8QsqG0GbwhN--80" value="" style="endArrow=none;dashed=1;html=1;dashPattern=1 3;strokeWidth=2;rounded=0;" edge="1" parent="1">
          <mxGeometry width="50" height="50" relative="1" as="geometry">
            <mxPoint x="1572" y="620" as="sourcePoint" />
            <mxPoint x="1620" y="620" as="targetPoint" />
          </mxGeometry>
        </mxCell>
        <mxCell id="hcJpbvyi8QsqG0GbwhN--81" value="" style="endArrow=classic;html=1;rounded=0;edgeStyle=orthogonalEdgeStyle;entryX=0.182;entryY=1.075;entryDx=0;entryDy=0;exitX=0.893;exitY=0.975;exitDx=0;exitDy=0;exitPerimeter=0;flowAnimation=0;entryPerimeter=0;" edge="1" parent="1" source="hcJpbvyi8QsqG0GbwhN--39" target="hcJpbvyi8QsqG0GbwhN--76">
          <mxGeometry width="50" height="50" relative="1" as="geometry">
            <mxPoint x="1275" y="450" as="sourcePoint" />
            <mxPoint x="1314" y="528" as="targetPoint" />
            <Array as="points">
              <mxPoint x="1602" y="650" />
              <mxPoint x="1660" y="650" />
              <mxPoint x="1660" y="528" />
              <mxPoint x="1372" y="528" />
            </Array>
          </mxGeometry>
        </mxCell>
        <mxCell id="hcJpbvyi8QsqG0GbwhN--82" value="users" style="shape=table;startSize=30;container=1;collapsible=0;childLayout=tableLayout;" vertex="1" parent="1">
          <mxGeometry x="750" y="630" width="240" height="70" as="geometry" />
        </mxCell>
        <mxCell id="hcJpbvyi8QsqG0GbwhN--83" value="" style="shape=tableRow;horizontal=0;startSize=0;swimlaneHead=0;swimlaneBody=0;strokeColor=inherit;top=0;left=0;bottom=0;right=0;collapsible=0;dropTarget=0;fillColor=none;points=[[0,0.5],[1,0.5]];portConstraint=eastwest;" vertex="1" parent="hcJpbvyi8QsqG0GbwhN--82">
          <mxGeometry y="30" width="240" height="40" as="geometry" />
        </mxCell>
        <mxCell id="hcJpbvyi8QsqG0GbwhN--84" value="&lt;u&gt;SSN&lt;/u&gt;" style="shape=partialRectangle;html=1;whiteSpace=wrap;connectable=0;strokeColor=inherit;overflow=hidden;fillColor=none;top=0;left=0;bottom=0;right=0;pointerEvents=1;" vertex="1" parent="hcJpbvyi8QsqG0GbwhN--83">
          <mxGeometry width="60" height="40" as="geometry">
            <mxRectangle width="60" height="40" as="alternateBounds" />
          </mxGeometry>
        </mxCell>
        <mxCell id="hcJpbvyi8QsqG0GbwhN--85" value="name" style="shape=partialRectangle;html=1;whiteSpace=wrap;connectable=0;strokeColor=inherit;overflow=hidden;fillColor=none;top=0;left=0;bottom=0;right=0;pointerEvents=1;" vertex="1" parent="hcJpbvyi8QsqG0GbwhN--83">
          <mxGeometry x="60" width="60" height="40" as="geometry">
            <mxRectangle width="60" height="40" as="alternateBounds" />
          </mxGeometry>
        </mxCell>
        <mxCell id="hcJpbvyi8QsqG0GbwhN--86" value="email" style="shape=partialRectangle;html=1;whiteSpace=wrap;connectable=0;strokeColor=inherit;overflow=hidden;fillColor=none;top=0;left=0;bottom=0;right=0;pointerEvents=1;" vertex="1" parent="hcJpbvyi8QsqG0GbwhN--83">
          <mxGeometry x="120" width="60" height="40" as="geometry">
            <mxRectangle width="60" height="40" as="alternateBounds" />
          </mxGeometry>
        </mxCell>
        <mxCell id="hcJpbvyi8QsqG0GbwhN--117" value="emp_id" style="shape=partialRectangle;html=1;whiteSpace=wrap;connectable=0;strokeColor=inherit;overflow=hidden;fillColor=none;top=0;left=0;bottom=0;right=0;pointerEvents=1;" vertex="1" parent="hcJpbvyi8QsqG0GbwhN--83">
          <mxGeometry x="180" width="60" height="40" as="geometry">
            <mxRectangle width="60" height="40" as="alternateBounds" />
          </mxGeometry>
        </mxCell>
        <mxCell id="hcJpbvyi8QsqG0GbwhN--87" value="phones" style="shape=table;startSize=30;container=1;collapsible=0;childLayout=tableLayout;" vertex="1" parent="1">
          <mxGeometry x="790" y="760" width="150" height="70" as="geometry" />
        </mxCell>
        <mxCell id="hcJpbvyi8QsqG0GbwhN--88" value="" style="shape=tableRow;horizontal=0;startSize=0;swimlaneHead=0;swimlaneBody=0;strokeColor=inherit;top=0;left=0;bottom=0;right=0;collapsible=0;dropTarget=0;fillColor=none;points=[[0,0.5],[1,0.5]];portConstraint=eastwest;" vertex="1" parent="hcJpbvyi8QsqG0GbwhN--87">
          <mxGeometry y="30" width="150" height="40" as="geometry" />
        </mxCell>
        <mxCell id="hcJpbvyi8QsqG0GbwhN--89" value="&lt;u&gt;number&lt;/u&gt;" style="shape=partialRectangle;html=1;whiteSpace=wrap;connectable=0;strokeColor=inherit;overflow=hidden;fillColor=none;top=0;left=0;bottom=0;right=0;pointerEvents=1;" vertex="1" parent="hcJpbvyi8QsqG0GbwhN--88">
          <mxGeometry width="75" height="40" as="geometry">
            <mxRectangle width="75" height="40" as="alternateBounds" />
          </mxGeometry>
        </mxCell>
        <mxCell id="hcJpbvyi8QsqG0GbwhN--90" value="user_SSN" style="shape=partialRectangle;html=1;whiteSpace=wrap;connectable=0;strokeColor=inherit;overflow=hidden;fillColor=none;top=0;left=0;bottom=0;right=0;pointerEvents=1;" vertex="1" parent="hcJpbvyi8QsqG0GbwhN--88">
          <mxGeometry x="75" width="75" height="40" as="geometry">
            <mxRectangle width="75" height="40" as="alternateBounds" />
          </mxGeometry>
        </mxCell>
        <mxCell id="hcJpbvyi8QsqG0GbwhN--91" value="" style="endArrow=none;dashed=1;html=1;dashPattern=1 3;strokeWidth=2;rounded=0;" edge="1" parent="1">
          <mxGeometry width="50" height="50" relative="1" as="geometry">
            <mxPoint x="882" y="821" as="sourcePoint" />
            <mxPoint x="930" y="821" as="targetPoint" />
          </mxGeometry>
        </mxCell>
        <mxCell id="hcJpbvyi8QsqG0GbwhN--92" value="" style="endArrow=classic;html=1;rounded=0;edgeStyle=orthogonalEdgeStyle;flowAnimation=0;" edge="1" parent="1">
          <mxGeometry width="50" height="50" relative="1" as="geometry">
            <mxPoint x="940" y="810" as="sourcePoint" />
            <mxPoint x="780" y="700" as="targetPoint" />
            <Array as="points">
              <mxPoint x="940" y="820" />
              <mxPoint x="960" y="820" />
              <mxPoint x="960" y="740" />
              <mxPoint x="780" y="740" />
              <mxPoint x="780" y="700" />
            </Array>
          </mxGeometry>
        </mxCell>
        <mxCell id="hcJpbvyi8QsqG0GbwhN--93" value="user_borrow_books" style="shape=table;startSize=30;container=1;collapsible=0;childLayout=tableLayout;" vertex="1" parent="1">
          <mxGeometry x="590" y="510" width="465" height="70" as="geometry" />
        </mxCell>
        <mxCell id="hcJpbvyi8QsqG0GbwhN--94" value="" style="shape=tableRow;horizontal=0;startSize=0;swimlaneHead=0;swimlaneBody=0;strokeColor=inherit;top=0;left=0;bottom=0;right=0;collapsible=0;dropTarget=0;fillColor=none;points=[[0,0.5],[1,0.5]];portConstraint=eastwest;" vertex="1" parent="hcJpbvyi8QsqG0GbwhN--93">
          <mxGeometry y="30" width="465" height="40" as="geometry" />
        </mxCell>
        <mxCell id="hcJpbvyi8QsqG0GbwhN--111" value="employee_id" style="shape=partialRectangle;html=1;whiteSpace=wrap;connectable=0;strokeColor=inherit;overflow=hidden;fillColor=none;top=0;left=0;bottom=0;right=0;pointerEvents=1;" vertex="1" parent="hcJpbvyi8QsqG0GbwhN--94">
          <mxGeometry width="90" height="40" as="geometry">
            <mxRectangle width="90" height="40" as="alternateBounds" />
          </mxGeometry>
        </mxCell>
        <mxCell id="hcJpbvyi8QsqG0GbwhN--95" value="SSN" style="shape=partialRectangle;html=1;whiteSpace=wrap;connectable=0;strokeColor=inherit;overflow=hidden;fillColor=none;top=0;left=0;bottom=0;right=0;pointerEvents=1;" vertex="1" parent="hcJpbvyi8QsqG0GbwhN--94">
          <mxGeometry x="90" width="65" height="40" as="geometry">
            <mxRectangle width="65" height="40" as="alternateBounds" />
          </mxGeometry>
        </mxCell>
        <mxCell id="hcJpbvyi8QsqG0GbwhN--96" value="book_id" style="shape=partialRectangle;html=1;whiteSpace=wrap;connectable=0;strokeColor=inherit;overflow=hidden;fillColor=none;top=0;left=0;bottom=0;right=0;pointerEvents=1;" vertex="1" parent="hcJpbvyi8QsqG0GbwhN--94">
          <mxGeometry x="155" width="78" height="40" as="geometry">
            <mxRectangle width="78" height="40" as="alternateBounds" />
          </mxGeometry>
        </mxCell>
        <mxCell id="hcJpbvyi8QsqG0GbwhN--104" value="date_borrowed" style="shape=partialRectangle;html=1;whiteSpace=wrap;connectable=0;strokeColor=inherit;overflow=hidden;fillColor=none;top=0;left=0;bottom=0;right=0;pointerEvents=1;" vertex="1" parent="hcJpbvyi8QsqG0GbwhN--94">
          <mxGeometry x="233" width="100" height="40" as="geometry">
            <mxRectangle width="100" height="40" as="alternateBounds" />
          </mxGeometry>
        </mxCell>
        <mxCell id="hcJpbvyi8QsqG0GbwhN--105" value="due_date" style="shape=partialRectangle;html=1;whiteSpace=wrap;connectable=0;strokeColor=inherit;overflow=hidden;fillColor=none;top=0;left=0;bottom=0;right=0;pointerEvents=1;" vertex="1" parent="hcJpbvyi8QsqG0GbwhN--94">
          <mxGeometry x="333" width="72" height="40" as="geometry">
            <mxRectangle width="72" height="40" as="alternateBounds" />
          </mxGeometry>
        </mxCell>
        <mxCell id="hcJpbvyi8QsqG0GbwhN--106" value="price" style="shape=partialRectangle;html=1;whiteSpace=wrap;connectable=0;strokeColor=inherit;overflow=hidden;fillColor=none;top=0;left=0;bottom=0;right=0;pointerEvents=1;" vertex="1" parent="hcJpbvyi8QsqG0GbwhN--94">
          <mxGeometry x="405" width="60" height="40" as="geometry">
            <mxRectangle width="60" height="40" as="alternateBounds" />
          </mxGeometry>
        </mxCell>
        <mxCell id="hcJpbvyi8QsqG0GbwhN--97" value="" style="endArrow=none;dashed=1;html=1;dashPattern=1 3;strokeWidth=2;rounded=0;" edge="1" parent="1">
          <mxGeometry width="50" height="50" relative="1" as="geometry">
            <mxPoint x="759" y="570" as="sourcePoint" />
            <mxPoint x="807" y="570" as="targetPoint" />
          </mxGeometry>
        </mxCell>
        <mxCell id="hcJpbvyi8QsqG0GbwhN--98" value="" style="endArrow=none;dashed=1;html=1;dashPattern=1 3;strokeWidth=2;rounded=0;" edge="1" parent="1">
          <mxGeometry width="50" height="50" relative="1" as="geometry">
            <mxPoint x="692" y="570" as="sourcePoint" />
            <mxPoint x="740" y="570" as="targetPoint" />
          </mxGeometry>
        </mxCell>
        <mxCell id="hcJpbvyi8QsqG0GbwhN--109" value="" style="endArrow=classic;html=1;rounded=0;edgeStyle=orthogonalEdgeStyle;entryX=0.008;entryY=0.235;entryDx=0;entryDy=0;flowAnimation=0;entryPerimeter=0;" edge="1" parent="1" target="hcJpbvyi8QsqG0GbwhN--39">
          <mxGeometry width="50" height="50" relative="1" as="geometry">
            <mxPoint x="780" y="580" as="sourcePoint" />
            <mxPoint x="1295" y="599" as="targetPoint" />
            <Array as="points">
              <mxPoint x="780" y="578" />
              <mxPoint x="780" y="600" />
              <mxPoint x="1070" y="600" />
              <mxPoint x="1070" y="550" />
              <mxPoint x="1270" y="550" />
              <mxPoint x="1270" y="599" />
            </Array>
          </mxGeometry>
        </mxCell>
        <mxCell id="hcJpbvyi8QsqG0GbwhN--110" value="" style="endArrow=classic;html=1;rounded=0;edgeStyle=orthogonalEdgeStyle;entryX=0;entryY=0.5;entryDx=0;entryDy=0;flowAnimation=0;exitX=0.245;exitY=0.985;exitDx=0;exitDy=0;exitPerimeter=0;" edge="1" parent="1" source="hcJpbvyi8QsqG0GbwhN--94" target="hcJpbvyi8QsqG0GbwhN--83">
          <mxGeometry width="50" height="50" relative="1" as="geometry">
            <mxPoint x="700" y="580" as="sourcePoint" />
            <mxPoint x="739" y="659.96" as="targetPoint" />
            <Array as="points">
              <mxPoint x="700" y="579" />
              <mxPoint x="700" y="680" />
            </Array>
          </mxGeometry>
        </mxCell>
        <mxCell id="hcJpbvyi8QsqG0GbwhN--114" value="" style="endArrow=none;dashed=1;html=1;dashPattern=1 3;strokeWidth=2;rounded=0;" edge="1" parent="1">
          <mxGeometry width="50" height="50" relative="1" as="geometry">
            <mxPoint x="608" y="572.2" as="sourcePoint" />
            <mxPoint x="656" y="572.2" as="targetPoint" />
          </mxGeometry>
        </mxCell>
        <mxCell id="hcJpbvyi8QsqG0GbwhN--115" value="" style="endArrow=classic;html=1;rounded=0;edgeStyle=orthogonalEdgeStyle;flowAnimation=0;exitX=0.078;exitY=0.965;exitDx=0;exitDy=0;exitPerimeter=0;entryX=0.018;entryY=1.035;entryDx=0;entryDy=0;entryPerimeter=0;" edge="1" parent="1" source="hcJpbvyi8QsqG0GbwhN--94" target="hcJpbvyi8QsqG0GbwhN--2">
          <mxGeometry width="50" height="50" relative="1" as="geometry">
            <mxPoint x="490" y="650" as="sourcePoint" />
            <mxPoint x="-70" y="400" as="targetPoint" />
            <Array as="points">
              <mxPoint x="626" y="610" />
              <mxPoint x="550" y="610" />
              <mxPoint x="550" y="480" />
              <mxPoint x="-75" y="480" />
              <mxPoint x="-75" y="400" />
            </Array>
          </mxGeometry>
        </mxCell>
        <mxCell id="hcJpbvyi8QsqG0GbwhN--118" value="" style="endArrow=none;dashed=1;html=1;dashPattern=1 3;strokeWidth=2;rounded=0;" edge="1" parent="1">
          <mxGeometry width="50" height="50" relative="1" as="geometry">
            <mxPoint x="940" y="690" as="sourcePoint" />
            <mxPoint x="988" y="690" as="targetPoint" />
          </mxGeometry>
        </mxCell>
        <mxCell id="hcJpbvyi8QsqG0GbwhN--119" value="" style="endArrow=classic;html=1;rounded=0;edgeStyle=orthogonalEdgeStyle;flowAnimation=0;entryX=0;entryY=0.5;entryDx=0;entryDy=0;exitX=1;exitY=0.5;exitDx=0;exitDy=0;" edge="1" parent="1" source="hcJpbvyi8QsqG0GbwhN--83" target="hcJpbvyi8QsqG0GbwhN--2">
          <mxGeometry width="50" height="50" relative="1" as="geometry">
            <mxPoint x="1050" y="800" as="sourcePoint" />
            <mxPoint x="-120" y="370" as="targetPoint" />
            <Array as="points">
              <mxPoint x="1060" y="680" />
              <mxPoint x="1060" y="860" />
              <mxPoint x="510" y="860" />
              <mxPoint x="510" y="510" />
              <mxPoint x="-140" y="510" />
              <mxPoint x="-140" y="370" />
            </Array>
          </mxGeometry>
        </mxCell>
      </root>
    </mxGraphModel>
  </diagram>
</mxfile>
